<svg width="50" height="22" viewBox="0 0 50 22" fill="none" xmlns="http://www.w3.org/2000/svg">
<path d="M13.5736 19.8143L11.5911 3.95407C11.6032 3.76691 11.6729 3.58737 11.7914 3.43805C11.91 3.28874 12.072 3.17631 12.2571 3.11493C12.4423 3.05356 12.6423 3.04597 12.8319 3.09314C13.0215 3.1403 13.1923 3.24011 13.3228 3.37999L17.7591 8.18021C17.8581 8.2867 17.9808 8.37051 18.1183 8.42544C18.2557 8.48037 18.4043 8.50501 18.553 8.49754C18.7018 8.49006 18.8468 8.45066 18.9775 8.38226C19.1081 8.31385 19.2211 8.2182 19.3079 8.10237L25.0692 0.396068C25.1689 0.262622 25.3032 0.156266 25.4588 0.0874176C25.6144 0.0185691 25.786 -0.0104099 25.9569 0.00332385C26.1277 0.0170576 26.2919 0.0730322 26.4333 0.165761C26.5748 0.258489 26.6886 0.384795 26.7637 0.532295L30.6373 8.16399C30.7144 8.31029 30.8297 8.43496 30.9722 8.52582C31.1146 8.61668 31.2792 8.67063 31.45 8.68239C31.6207 8.69416 31.7917 8.66333 31.9463 8.59294C32.1009 8.52254 32.2337 8.41498 32.3318 8.28075L36.602 2.24156C36.7171 2.07711 36.8832 1.95132 37.0768 1.88185C37.2705 1.81239 37.4821 1.80275 37.6818 1.85429C37.8815 1.90582 38.0593 2.01595 38.1902 2.16918C38.3211 2.32242 38.3986 2.51106 38.4117 2.70861L36.9307 20.2229C36.9397 20.3547 36.9199 20.4869 36.8725 20.611C36.8252 20.7351 36.7513 20.8483 36.6556 20.9435C36.56 21.0388 36.4446 21.1138 36.3169 21.164C36.1892 21.2142 36.052 21.2383 35.914 21.2349L14.5192 20.8067C14.2563 20.795 14.0091 20.6838 13.8318 20.4977C13.6545 20.3116 13.5617 20.0658 13.5736 19.8143Z" fill="#EFBA1D"/>
<path d="M43.6342 6.51285L43.9155 4.95926C43.9219 4.91983 43.9402 4.88305 43.9682 4.85346C43.9962 4.82388 44.0326 4.80278 44.073 4.79278C44.1133 4.78278 44.1559 4.7843 44.1953 4.79717C44.2348 4.81004 44.2695 4.83369 44.2951 4.8652L45.2914 6.0231C45.314 6.04801 45.3422 6.06767 45.3739 6.08059C45.4056 6.09352 45.44 6.09936 45.4744 6.09769L47.0978 5.99066C47.1377 5.98943 47.1772 5.99894 47.2118 6.01813C47.2464 6.03732 47.2746 6.06541 47.2933 6.0992C47.312 6.13299 47.3204 6.17113 47.3176 6.20928C47.3148 6.24743 47.3009 6.28406 47.2774 6.315L46.4268 7.28802C46.4017 7.31626 46.3852 7.3506 46.3792 7.38723C46.3732 7.42387 46.378 7.46137 46.3929 7.4956L46.8538 8.65998C46.8679 8.6966 46.871 8.73629 46.8626 8.77451C46.8543 8.81272 46.8348 8.84791 46.8065 8.87602C46.7782 8.90413 46.7422 8.92403 46.7026 8.93343C46.663 8.94283 46.6214 8.94136 46.5826 8.92917L45.4033 8.54321C45.3623 8.53002 45.3182 8.52883 45.2765 8.53981C45.2348 8.55079 45.1976 8.57344 45.1694 8.60483L44.3764 9.48379C44.349 9.51316 44.3134 9.53446 44.2738 9.54521C44.2342 9.55595 44.1923 9.5557 44.1528 9.54447C44.1134 9.53325 44.0781 9.51153 44.0511 9.48183C44.0241 9.45213 44.0064 9.41569 44.0002 9.37676L43.8206 8.15076C43.8154 8.1146 43.8005 8.08034 43.7773 8.05134C43.7542 8.02235 43.7235 7.99961 43.6884 7.98534L42.5633 7.54425C42.5256 7.52942 42.493 7.50473 42.4693 7.473C42.4456 7.44128 42.4317 7.4038 42.4292 7.36487C42.4268 7.32593 42.4358 7.28712 42.4553 7.25288C42.4748 7.21864 42.504 7.19035 42.5395 7.17126L43.5291 6.64582C43.5553 6.63181 43.5782 6.61277 43.5962 6.58988C43.6143 6.56699 43.6272 6.54076 43.6342 6.51285Z" fill="#ACDEE7"/>
<path opacity="0.2" d="M43.6207 14.5242L45.7727 12.296C45.8269 12.2394 45.897 12.1989 45.9746 12.1795C46.0522 12.1601 46.1341 12.1625 46.2103 12.1864C46.2865 12.2104 46.3538 12.2549 46.4043 12.3146C46.4547 12.3743 46.4861 12.4467 46.4946 12.523L46.8335 15.3934C46.841 15.4569 46.8643 15.5177 46.9014 15.5707C46.9386 15.6238 46.9885 15.6675 47.047 15.6983L49.7853 17.1513C49.8567 17.1892 49.9149 17.2463 49.9527 17.3155C49.9905 17.3848 50.0062 17.4631 49.9979 17.5408C49.9896 17.6185 49.9577 17.6922 49.906 17.7527C49.8544 17.8132 49.7853 17.8578 49.7074 17.8811L47.2673 18.5979C47.1964 18.6189 47.1326 18.6576 47.0826 18.71C47.0325 18.7625 46.998 18.8268 46.9826 18.8963L46.4573 21.2445C46.4399 21.3185 46.401 21.3863 46.3451 21.44C46.2892 21.4937 46.2185 21.5313 46.1413 21.5482C46.064 21.5652 45.9834 21.5609 45.9086 21.5358C45.8338 21.5108 45.7679 21.466 45.7185 21.4067L44.2409 19.6033C44.1887 19.5409 44.1184 19.4947 44.0388 19.4705C43.9592 19.4462 43.8739 19.4451 43.7936 19.4671L41.5534 20.0931C41.4765 20.1146 41.3947 20.1144 41.3179 20.0926C41.2411 20.0708 41.1725 20.0283 41.1202 19.9701C41.068 19.9119 41.0345 19.8406 41.0235 19.7646C41.0126 19.6886 41.0248 19.6112 41.0586 19.5417L42.1126 17.3816C42.1442 17.3187 42.1578 17.2489 42.1518 17.1794C42.1458 17.1098 42.1206 17.043 42.0787 16.9859L40.7435 15.1437C40.6984 15.0818 40.6726 15.009 40.669 14.9336C40.6654 14.8583 40.6842 14.7835 40.7233 14.718C40.7623 14.6525 40.8199 14.5989 40.8895 14.5634C40.959 14.528 41.0376 14.5121 41.1162 14.5177L43.2852 14.6572C43.3479 14.6602 43.4106 14.6498 43.4686 14.6268C43.5266 14.6038 43.5786 14.5688 43.6207 14.5242Z" fill="#4B4B4B"/>
<path d="M2.33568 11.2027L3.0372 8.36477C3.05454 8.29298 3.09316 8.22751 3.14843 8.17621C3.20369 8.12492 3.27325 8.08999 3.34876 8.0756C3.42427 8.06122 3.50252 8.068 3.5741 8.09513C3.64568 8.12226 3.70754 8.16858 3.75228 8.22855L5.44679 10.4762C5.48585 10.5267 5.53703 10.5676 5.59601 10.5952C5.65499 10.6229 5.72003 10.6366 5.78569 10.6351L8.79514 10.6124C8.87427 10.611 8.95205 10.6322 9.01864 10.6731C9.08522 10.714 9.13763 10.773 9.1692 10.8424C9.20077 10.9119 9.21009 10.9887 9.19599 11.0633C9.18189 11.1378 9.14499 11.2067 9.08998 11.2611L7.39547 12.9639C7.34579 13.0126 7.31099 13.0735 7.29486 13.1398C7.27873 13.2061 7.2819 13.2754 7.30398 13.3401L8.01906 15.5424C8.04253 15.6121 8.04461 15.6868 8.02508 15.7576C8.00554 15.8283 7.9652 15.8923 7.90883 15.9418C7.85246 15.9913 7.78244 16.0243 7.70707 16.0369C7.63169 16.0494 7.55413 16.041 7.48359 16.0127L5.35191 15.1694C5.27769 15.1405 5.19614 15.1333 5.11767 15.1489C5.0392 15.1645 4.96737 15.2021 4.91134 15.257L3.3456 16.7943C3.29094 16.8437 3.22299 16.8775 3.14936 16.8918C3.07573 16.9062 2.99937 16.9005 2.9289 16.8756C2.85843 16.8506 2.79664 16.8073 2.75051 16.7506C2.70438 16.6938 2.67572 16.6258 2.66779 16.5543L2.48819 14.284C2.4832 14.2156 2.45962 14.1498 2.41978 14.0929C2.37995 14.036 2.32526 13.99 2.26113 13.9596L0.22772 13.019C0.159557 12.9879 0.10198 12.939 0.0616824 12.8778C0.0213851 12.8167 0 12.7459 0 12.6736C0 12.6013 0.0213851 12.5305 0.0616824 12.4694C0.10198 12.4083 0.159557 12.3593 0.22772 12.3282L2.1154 11.4655C2.17048 11.4404 2.21892 11.4038 2.25707 11.3583C2.29523 11.3128 2.32209 11.2596 2.33568 11.2027Z" fill="#EFBAB2"/>
</svg>
