<svg width="50" height="22" viewBox="0 0 50 22" fill="none" xmlns="http://www.w3.org/2000/svg">
<path d="M13.5736 19.8143L11.5911 3.95407C11.6032 3.76691 11.6729 3.58737 11.7914 3.43805C11.91 3.28874 12.072 3.17631 12.2571 3.11493C12.4423 3.05356 12.6423 3.04597 12.8319 3.09314C13.0215 3.1403 13.1923 3.24011 13.3228 3.37999L17.7591 8.18021C17.8581 8.2867 17.9808 8.37051 18.1183 8.42544C18.2557 8.48037 18.4043 8.50501 18.553 8.49754C18.7018 8.49006 18.8468 8.45066 18.9775 8.38226C19.1081 8.31385 19.2211 8.2182 19.3079 8.10237L25.0692 0.396068C25.1689 0.262622 25.3032 0.156266 25.4588 0.0874176C25.6144 0.0185691 25.786 -0.0104099 25.9569 0.00332385C26.1277 0.0170576 26.2919 0.0730322 26.4333 0.165761C26.5748 0.258489 26.6886 0.384795 26.7637 0.532295L30.6373 8.164C30.7144 8.31029 30.8297 8.43496 30.9722 8.52582C31.1146 8.61668 31.2792 8.67063 31.45 8.6824C31.6207 8.69416 31.7917 8.66333 31.9463 8.59294C32.1009 8.52254 32.2337 8.41498 32.3318 8.28075L36.602 2.24156C36.7171 2.07711 36.8832 1.95132 37.0768 1.88185C37.2705 1.81239 37.4821 1.80275 37.6818 1.85429C37.8815 1.90582 38.0593 2.01595 38.1902 2.16918C38.3211 2.32242 38.3986 2.51106 38.4117 2.70861L36.9307 20.2229C36.9397 20.3547 36.9199 20.4869 36.8725 20.611C36.8252 20.7351 36.7513 20.8483 36.6556 20.9435C36.56 21.0388 36.4446 21.1138 36.3169 21.164C36.1892 21.2142 36.052 21.2383 35.914 21.2349L14.5192 20.8067C14.2563 20.795 14.0091 20.6838 13.8318 20.4977C13.6545 20.3116 13.5617 20.0658 13.5736 19.8143Z" fill="#EFBA1D"/>
<path d="M43.6343 6.51282L43.9156 4.95923C43.922 4.9198 43.9403 4.88302 43.9683 4.85343C43.9963 4.82385 44.0327 4.80275 44.0731 4.79275C44.1134 4.78275 44.156 4.78427 44.1955 4.79714C44.2349 4.81001 44.2696 4.83366 44.2952 4.86517L45.2915 6.02307C45.3141 6.04798 45.3424 6.06764 45.3741 6.08056C45.4058 6.09349 45.4401 6.09933 45.4746 6.09766L47.0979 5.99063C47.1378 5.9894 47.1773 5.99891 47.2119 6.0181C47.2465 6.03728 47.2747 6.06538 47.2934 6.09917C47.3121 6.13296 47.3206 6.1711 47.3178 6.20925C47.3149 6.2474 47.301 6.28403 47.2775 6.31497L46.4269 7.28799C46.4018 7.31623 46.3853 7.35057 46.3793 7.3872C46.3734 7.42384 46.3781 7.46134 46.393 7.49557L46.8539 8.65994C46.868 8.69657 46.8711 8.73626 46.8627 8.77447C46.8544 8.81269 46.8349 8.84788 46.8066 8.87599C46.7783 8.9041 46.7423 8.92399 46.7027 8.9334C46.6631 8.9428 46.6215 8.94133 46.5828 8.92914L45.4034 8.54318C45.3624 8.52999 45.3183 8.5288 45.2766 8.53978C45.235 8.55076 45.1977 8.5734 45.1695 8.6048L44.3765 9.48376C44.3491 9.51313 44.3135 9.53443 44.2739 9.54518C44.2343 9.55592 44.1924 9.55567 44.1529 9.54444C44.1135 9.53322 44.0782 9.5115 44.0512 9.4818C44.0242 9.4521 44.0065 9.41566 44.0003 9.37673L43.8207 8.15073C43.8155 8.11457 43.8006 8.08031 43.7775 8.05131C43.7543 8.02232 43.7237 7.99958 43.6885 7.98531L42.5634 7.54422C42.5257 7.52939 42.4931 7.5047 42.4694 7.47297C42.4457 7.44125 42.4318 7.40377 42.4294 7.36483C42.4269 7.3259 42.4359 7.28709 42.4554 7.25285C42.4749 7.2186 42.5041 7.19032 42.5397 7.17123L43.5293 6.64579C43.5554 6.63178 43.5783 6.61274 43.5964 6.58985C43.6144 6.56696 43.6274 6.54073 43.6343 6.51282Z" fill="#ACDEE7"/>
<path opacity="0.2" d="M43.6206 14.5242L45.7726 12.296C45.8268 12.2394 45.8969 12.1989 45.9745 12.1795C46.0521 12.1601 46.1339 12.1625 46.2101 12.1864C46.2863 12.2104 46.3537 12.2549 46.4041 12.3146C46.4546 12.3743 46.4859 12.4467 46.4945 12.523L46.8334 15.3934C46.8409 15.4569 46.8642 15.5177 46.9013 15.5707C46.9385 15.6238 46.9884 15.6675 47.0469 15.6983L49.7852 17.1513C49.8566 17.1892 49.9148 17.2463 49.9526 17.3155C49.9904 17.3848 50.0061 17.4631 49.9978 17.5408C49.9895 17.6185 49.9576 17.6922 49.9059 17.7527C49.8543 17.8132 49.7852 17.8578 49.7073 17.8811L47.2672 18.5979C47.1963 18.6189 47.1325 18.6576 47.0824 18.71C47.0324 18.7625 46.9979 18.8268 46.9825 18.8963L46.4572 21.2445C46.4398 21.3185 46.4009 21.3863 46.345 21.44C46.2891 21.4937 46.2184 21.5313 46.1412 21.5482C46.0639 21.5652 45.9832 21.5609 45.9084 21.5358C45.8336 21.5108 45.7677 21.466 45.7184 21.4067L44.2408 19.6033C44.1886 19.5409 44.1182 19.4947 44.0386 19.4705C43.959 19.4462 43.8737 19.4451 43.7934 19.4671L41.5533 20.0931C41.4764 20.1146 41.3946 20.1144 41.3178 20.0926C41.241 20.0708 41.1723 20.0283 41.1201 19.9701C41.0679 19.9119 41.0344 19.8406 41.0234 19.7646C41.0125 19.6886 41.0247 19.6112 41.0585 19.5417L42.1125 17.3816C42.1441 17.3187 42.1576 17.2489 42.1517 17.1794C42.1457 17.1098 42.1205 17.043 42.0786 16.9859L40.7433 15.1437C40.6983 15.0818 40.6725 15.009 40.6689 14.9336C40.6653 14.8583 40.6841 14.7835 40.7231 14.718C40.7622 14.6525 40.8198 14.5989 40.8893 14.5634C40.9589 14.528 41.0375 14.5121 41.1161 14.5177L43.2851 14.6572C43.3478 14.6602 43.4105 14.6498 43.4685 14.6268C43.5265 14.6038 43.5785 14.5688 43.6206 14.5242Z" fill="#4B4B4B"/>
<path d="M2.33568 11.2027L3.0372 8.36477C3.05454 8.29298 3.09316 8.22751 3.14843 8.17621C3.20369 8.12492 3.27325 8.08999 3.34876 8.0756C3.42427 8.06122 3.50252 8.068 3.5741 8.09513C3.64568 8.12226 3.70754 8.16858 3.75228 8.22855L5.44679 10.4762C5.48585 10.5267 5.53703 10.5676 5.59601 10.5952C5.65499 10.6229 5.72003 10.6366 5.78569 10.6351L8.79514 10.6124C8.87427 10.611 8.95205 10.6322 9.01864 10.6731C9.08522 10.714 9.13763 10.773 9.1692 10.8424C9.20077 10.9119 9.21009 10.9887 9.19599 11.0633C9.18189 11.1378 9.14499 11.2067 9.08998 11.2611L7.39547 12.9639C7.34579 13.0126 7.31099 13.0735 7.29486 13.1398C7.27873 13.2061 7.2819 13.2754 7.30398 13.3401L8.01906 15.5424C8.04253 15.6121 8.04461 15.6868 8.02508 15.7576C8.00554 15.8283 7.9652 15.8923 7.90883 15.9418C7.85246 15.9913 7.78244 16.0243 7.70707 16.0369C7.63169 16.0494 7.55413 16.041 7.48359 16.0127L5.35191 15.1694C5.27769 15.1405 5.19614 15.1333 5.11767 15.1489C5.0392 15.1645 4.96737 15.2021 4.91134 15.257L3.3456 16.7943C3.29094 16.8437 3.22299 16.8775 3.14936 16.8918C3.07573 16.9062 2.99937 16.9005 2.9289 16.8756C2.85843 16.8506 2.79664 16.8073 2.75051 16.7506C2.70438 16.6938 2.67572 16.6258 2.66779 16.5543L2.48819 14.284C2.4832 14.2156 2.45962 14.1498 2.41978 14.0929C2.37995 14.036 2.32526 13.99 2.26113 13.9596L0.22772 13.019C0.159557 12.9879 0.10198 12.939 0.0616824 12.8778C0.0213851 12.8167 0 12.7459 0 12.6736C0 12.6013 0.0213851 12.5305 0.0616824 12.4694C0.10198 12.4083 0.159557 12.3593 0.22772 12.3282L2.1154 11.4655C2.17048 11.4404 2.21892 11.4038 2.25707 11.3583C2.29523 11.3128 2.32209 11.2596 2.33568 11.2027Z" fill="#EFBAB2"/>
</svg>
