<svg width="45" height="35" viewBox="0 0 45 35" fill="none" xmlns="http://www.w3.org/2000/svg">
<path d="M1.94226 12.1373L11.7014 2.04357C12.6459 1.06861 13.8499 0.404271 15.161 0.134651C16.4721 -0.13497 17.8313 0.00224933 19.0667 0.528939C20.3021 1.05563 21.358 1.94811 22.1009 3.09341C22.8437 4.23871 23.2401 5.58534 23.2398 6.96283V10.1031H37.353C39.1449 10.1031 40.8634 10.8365 42.1305 12.142C43.3975 13.4475 44.1094 15.2181 44.1094 17.0643C44.1094 18.9106 43.3975 20.6812 42.1305 21.9867C40.8634 23.2921 39.1449 24.0256 37.353 24.0256H23.2773V27.1194C23.2791 28.4976 22.8838 29.8453 22.1415 30.9918C21.3993 32.1383 20.3434 33.0319 19.1077 33.5596C17.872 34.0872 16.5121 34.2251 15.2003 33.9557C13.8885 33.6864 12.6839 33.0219 11.739 32.0464L1.97978 21.9449C0.718687 20.6461 0.00704898 18.8863 1.78217e-05 17.0491C-0.00701334 15.2119 0.691141 13.4464 1.94226 12.1373Z" fill="white"/>
</svg>
