<svg width="45" height="35" viewBox="0 0 45 35" fill="none" xmlns="http://www.w3.org/2000/svg">
<path d="M42.171 12.6232L32.4119 2.38663C31.4674 1.39787 30.2634 0.724138 28.9523 0.450704C27.6412 0.177269 26.2819 0.316429 25.0466 0.850569C23.8112 1.38471 22.7552 2.28982 22.0124 3.45132C21.2696 4.61282 20.8732 5.9785 20.8735 7.37548V10.5602H6.76026C4.96836 10.5602 3.24986 11.304 1.9828 12.6279C0.71574 13.9519 0.00390625 15.7475 0.00390625 17.6199C0.00390625 19.4922 0.71574 21.2879 1.9828 22.6118C3.24986 23.9358 4.96836 24.6796 6.76026 24.6796H20.836V27.8172C20.8342 29.2149 21.2295 30.5816 21.9718 31.7443C22.714 32.9071 23.7699 33.8134 25.0056 34.3485C26.2412 34.8836 27.6011 35.0234 28.9129 34.7502C30.2247 34.477 31.4294 33.8032 32.3743 32.8139L42.1335 22.5695C43.3946 21.2523 44.1062 19.4676 44.1133 17.6044C44.1203 15.7413 43.4221 13.9507 42.171 12.6232Z" fill="white"/>
</svg>
